<?xml version="1.0" standalone="no"?>
<!DOCTYPE svg PUBLIC "-//W3C//DTD SVG 20010904//EN"
 "http://www.w3.org/TR/2001/REC-SVG-20010904/DTD/svg10.dtd">
<svg version="1.0" xmlns="http://www.w3.org/2000/svg"
 width="298.000000pt" height="300.000000pt" viewBox="0 0 298.000000 300.000000"
 preserveAspectRatio="xMidYMid meet">
<metadata>
Created by potrace 1.16, written by Peter Selinger 2001-2019
</metadata>
<g transform="translate(0.000000,300.000000) scale(0.100000,-0.100000)"
fill="#000000" stroke="none">
<path d="M1275 2985 c-532 -94 -964 -460 -1144 -968 -132 -375 -98 -815 89
-1165 l39 -72 -129 -381 c-72 -210 -130 -386 -130 -390 0 -5 5 -9 12 -9 7 0
188 56 403 125 l392 125 84 -39 c105 -48 247 -94 364 -117 123 -25 393 -25
525 -1 291 54 559 196 775 412 195 194 314 402 387 675 27 104 31 134 35 307
5 153 2 212 -12 295 -76 457 -373 857 -790 1063 -140 69 -212 96 -345 127
-114 26 -437 34 -555 13z m489 -266 c495 -99 876 -504 950 -1010 26 -173 17
-309 -30 -489 -30 -117 -124 -310 -196 -405 -198 -260 -494 -433 -815 -476
-113 -15 -312 -6 -424 20 -111 25 -224 69 -323 126 l-79 45 -227 -73 -227 -74
74 222 74 222 -37 54 c-210 312 -252 740 -109 1105 103 260 327 504 580 632
126 63 301 112 445 126 80 7 243 -5 344 -25z"/>
<path d="M975 2246 c-41 -18 -118 -103 -148 -162 -50 -99 -58 -197 -28 -316
58 -225 319 -574 559 -745 126 -90 448 -223 539 -223 115 0 244 52 311 124 45
49 72 122 72 197 0 55 10 48 -191 153 -87 45 -158 76 -176 76 -23 0 -37 -9
-64 -42 -74 -93 -121 -138 -147 -138 -36 0 -180 82 -267 151 -86 69 -184 188
-235 282 l-34 65 55 63 c65 74 79 98 79 133 0 35 -117 347 -138 368 -24 23
-147 33 -187 14z"/>
</g>
</svg>
